# xmcd
#
# Track frame offsets:
#	225
#	19052
#	36192
#	56642
#	75963
#	94152
#	109053
#	125661
#	142280
#	156438
#	165110
#	186101
#	204912
#	220290
#	235465
#	253202
#	266472
#	284087
#	300300
#
# Disc length: 4194 seconds
#
# Revision: 1
# Processed by: cddbd v1.4PL0 Copyright (c) Steve Scherf et al.
# Submitted via: CDmax 1.9
#
DISCID=12105f13
DTITLE=Michal Tucny, Zdenek Rytir - Jak to doopravdy bylo s Babinskym
DYEAR=1997
DGENRE=Country
TTITLE0=Jak to doopravdy bylo s Babinskym
TTITLE1=V lete 1837
TTITLE2=Stat mimo zakon
TTITLE3=Cista prace
TTITLE4=Muj kalendar
TTITLE5=Ucty
TTITLE6=Umet se narodit
TTITLE7=Posledni naboj
TTITLE8=Ja nic, ja muzikant
TTITLE9=Roky jdou
TTITLE10=Byt hlidacem ruzi
TTITLE11=Odval ten kamen
TTITLE12=Takhle jezdis jen ty
TTITLE13=Dvojnici
TTITLE14=Mam paru
TTITLE15=Je to zvlastni
TTITLE16=Prazdny nadrazi
TTITLE17=Rodinne stesti
TTITLE18=Necekej uz dal
EXTD=
EXTT0=
EXTT1=
EXTT2=
EXTT3=
EXTT4=
EXTT5=
EXTT6=
EXTT7=
EXTT8=
EXTT9=
EXTT10=
EXTT11=
EXTT12=
EXTT13=
EXTT14=
EXTT15=
EXTT16=
EXTT17=
EXTT18=
PLAYORDER=
